# xmcd
#
# Track frame offsets:
# 150
# 17277
# 33842
# 44033
# 59553
# 75189
# 93217
# 110297
# 127430
# 144089
#
# Disc length: 2160 seconds
#
#
# Revision: 0
# Processed by: cddbd v1.5.1PL0 Copyright (c) Steve Scherf et al.
# Submitted via: FreeRIP 2.70 
#
DISCID=77086e0a
DTITLE=Edith Marquez - Frente a Ti
DYEAR=1998
DGENRE=Balada
TTITLE0=Ya Que Voy a Estar Sin Ti
TTITLE1=Enamorada
TTITLE2=Mi Error, Mi Fantasia
TTITLE3=Bajale
TTITLE4=Mirame
TTITLE5=Dos Recuerdos
TTITLE6=No se que estoy pagando
TTITLE7=Eso Jamas
TTITLE8=Por Hablarle de Ti
TTITLE9=Adios
EXTD=
EXTT0=
EXTT1=
EXTT2=
EXTT3=
EXTT4=
EXTT5=
EXTT6=
EXTT7=
EXTT8=
EXTT9=
PLAYORDER=
